<?xml version="1.0" encoding="UTF-8" standalone="no"?>
<!-- Created with Inkscape (http://www.inkscape.org/) -->

<svg
   xmlns:dc="http://purl.org/dc/elements/1.1/"
   xmlns:cc="http://creativecommons.org/ns#"
   xmlns:rdf="http://www.w3.org/1999/02/22-rdf-syntax-ns#"
   xmlns:svg="http://www.w3.org/2000/svg"
   xmlns="http://www.w3.org/2000/svg"
   xmlns:sodipodi="http://sodipodi.sourceforge.net/DTD/sodipodi-0.dtd"
   xmlns:inkscape="http://www.inkscape.org/namespaces/inkscape"
   width="256"
   height="256"
   viewBox="0 0 67.733332 67.733335"
   version="1.1"
   id="svg8"
   inkscape:version="0.92.1 r"
   sodipodi:docname="Fog.svg"
   inkscape:export-filename="/home/saphir/MIM/PO/Weather_/SvgImages/Fog.png"
   inkscape:export-xdpi="96"
   inkscape:export-ydpi="96">
  <defs
     id="defs2" />
  <sodipodi:namedview
     id="base"
     pagecolor="#ffffff"
     bordercolor="#666666"
     borderopacity="1.0"
     inkscape:pageopacity="0.0"
     inkscape:pageshadow="2"
     inkscape:zoom="3.6955954"
     inkscape:cx="77.498302"
     inkscape:cy="130.16948"
     inkscape:document-units="mm"
     inkscape:current-layer="layer1"
     showgrid="false"
     units="px"
     showguides="true"
     inkscape:guide-bbox="true"
     inkscape:window-width="1920"
     inkscape:window-height="1164"
     inkscape:window-x="0"
     inkscape:window-y="36"
     inkscape:window-maximized="1"
     inkscape:snap-global="false" />
  <metadata
     id="metadata5">
    <rdf:RDF>
      <cc:Work
         rdf:about="">
        <dc:format>image/svg+xml</dc:format>
        <dc:type
           rdf:resource="http://purl.org/dc/dcmitype/StillImage" />
        <dc:title />
      </cc:Work>
    </rdf:RDF>
  </metadata>
  <g
     inkscape:label="Layer 1"
     inkscape:groupmode="layer"
     id="layer1"
     transform="translate(0,-229.26665)">
    <path
       style="fill:#cccccc;stroke:none;stroke-width:0.26458332px;stroke-linecap:butt;stroke-linejoin:miter;stroke-opacity:1"
       d="m 2.2910155,287.26317 c 4.4514851,-5.90678 28.6394515,-6.52223 33.4345095,0.71594 4.795058,7.23817 28.064939,-0.71594 28.064939,-0.71594 0,0 -23.666989,11.38979 -29.210448,2.72058 -3.617213,-5.65682 -28.6586948,-5.82284 -32.2890005,-2.72058 z"
       id="path14193"
       inkscape:connector-curvature="0"
       sodipodi:nodetypes="czcsc" />
    <path
       sodipodi:nodetypes="czcsc"
       inkscape:connector-curvature="0"
       id="path14195"
       d="m 13.531311,280.18386 c 3.943632,-5.2329 25.372086,-5.77813 29.620094,0.63426 4.248008,6.4124 24.863118,-0.63426 24.863118,-0.63426 0,0 -20.966913,10.09037 -25.87794,2.4102 -3.204539,-5.01146 -25.389135,-5.15853 -28.605272,-2.4102 z"
       style="fill:#cccccc;stroke:none;stroke-width:0.26458332px;stroke-linecap:butt;stroke-linejoin:miter;stroke-opacity:1" />
    <path
       style="fill:#cccccc;stroke:none;stroke-width:0.26458332px;stroke-linecap:butt;stroke-linejoin:miter;stroke-opacity:1"
       d="m 1.6466675,269.02264 c 4.8038722,-6.37437 30.9066005,-7.03854 36.0812435,0.77261 5.174643,7.81117 30.286609,-0.77261 30.286609,-0.77261 0,0 -25.540509,12.29142 -31.522798,2.93595 -3.903558,-6.10463 -30.9273687,-6.28378 -34.8450545,-2.93595 z"
       id="path14199"
       inkscape:connector-curvature="0"
       sodipodi:nodetypes="czcsc" />
    <path
       sodipodi:nodetypes="czcsc"
       inkscape:connector-curvature="0"
       id="path14201"
       d="m 1.3602906,253.20031 c 4.8038722,-6.37437 30.9066004,-7.03854 36.0812434,0.77261 5.174643,7.81117 30.286609,-0.77261 30.286609,-0.77261 0,0 -25.540509,12.29142 -31.522798,2.93595 -3.903558,-6.10463 -30.9273686,-6.28378 -34.8450544,-2.93595 z"
       style="fill:#cccccc;stroke:none;stroke-width:0.26458332px;stroke-linecap:butt;stroke-linejoin:miter;stroke-opacity:1" />
    <path
       sodipodi:nodetypes="czcsc"
       inkscape:connector-curvature="0"
       id="path14203"
       d="m 6.0139158,261.91881 c 4.4514852,-5.90678 28.6394512,-6.52223 33.4345092,0.71594 4.795058,7.23817 28.064939,-0.71594 28.064939,-0.71594 0,0 -23.666989,11.38979 -29.210448,2.72058 -3.617213,-5.65682 -28.6586945,-5.82284 -32.2890002,-2.72058 z"
       style="fill:#cccccc;stroke:none;stroke-width:0.26458332px;stroke-linecap:butt;stroke-linejoin:miter;stroke-opacity:1" />
    <path
       style="fill:#cccccc;stroke:none;stroke-width:0.26458332px;stroke-linecap:butt;stroke-linejoin:miter;stroke-opacity:1"
       d="m 10.452759,243.02645 c 3.943632,-5.2329 25.372086,-5.77813 29.620094,0.63426 4.248008,6.4124 24.863118,-0.63426 24.863118,-0.63426 0,0 -20.966913,10.09037 -25.87794,2.4102 -3.204539,-5.01146 -25.389135,-5.15853 -28.605272,-2.4102 z"
       id="path14205"
       inkscape:connector-curvature="0"
       sodipodi:nodetypes="czcsc" />
  </g>
</svg>
